<svg width="18" height="14" viewBox="0 0 18 14" fill="none" xmlns="http://www.w3.org/2000/svg">
<path fill-rule="evenodd" clip-rule="evenodd" d="M10.7691 5.11792C11.6701 5.09628 12.4749 4.54908 12.8263 3.71925C12.9013 3.75087 12.9815 3.7683 13.0629 3.77067H17.1771C17.6032 3.77067 17.9486 3.42534 17.9486 2.99935C17.9486 2.57336 17.6032 2.22802 17.1771 2.22802H13.1143C13.0699 2.22221 13.025 2.22221 12.9806 2.22802C12.686 1.07063 11.5523 0.333027 10.3746 0.532499C9.19695 0.731971 8.3695 1.80174 8.47256 2.99158C8.57563 4.18142 9.5747 5.09301 10.7691 5.08707V5.11792ZM10.7691 2.08404C11.1838 2.08404 11.52 2.42017 11.52 2.8348C11.52 3.24943 11.1838 3.58556 10.7691 3.58556C10.3545 3.58556 10.0183 3.24943 10.0183 2.8348C10.0183 2.42017 10.3545 2.08404 10.7691 2.08404Z" fill="#17004C"/>
<path d="M0.771429 2.22802H6.94286C7.36891 2.22802 7.71429 2.57336 7.71429 2.99935C7.71429 3.42534 7.36891 3.77067 6.94286 3.77067H0.771429C0.34538 3.77067 0 3.42534 0 2.99935C0 2.57336 0.34538 2.22802 0.771429 2.22802Z" fill="#17004C"/>
<path fill-rule="evenodd" clip-rule="evenodd" d="M2.736 10.4555C3.05818 9.54436 3.91918 8.93473 4.88571 8.93341V8.91284C6.04884 8.91136 7.02895 9.78058 7.1663 10.9354C7.30366 12.0902 6.55477 13.1651 5.42374 13.4364C4.29271 13.7077 3.13762 13.0896 2.736 11.9981H0.771429C0.34538 11.9981 0 11.6528 0 11.2268C0 10.8008 0.34538 10.4555 0.771429 10.4555H2.736ZM4.1361 11.2809C4.14317 11.69 4.47652 12.0181 4.88571 12.0187V11.9776C5.3004 11.9776 5.63657 11.6414 5.63657 11.2268C5.61415 10.8183 5.26871 10.5029 4.85978 10.5177C4.45086 10.5324 4.12903 10.8718 4.1361 11.2809Z" fill="#17004C"/>
<path d="M9 10.4555H17.2286C17.6546 10.4555 18 10.8008 18 11.2268C18 11.6528 17.6546 11.9981 17.2286 11.9981H9C8.57395 11.9981 8.22857 11.6528 8.22857 11.2268C8.22857 10.8008 8.57395 10.4555 9 10.4555Z" fill="#17004C"/>
</svg>
