<svg width="56" height="20" viewBox="0 0 56 20" fill="none" xmlns="http://www.w3.org/2000/svg">
    <g opacity="0.98">
        <path d="M54.1768 18.899L54.2312 18.986L54.1224 19.0584L54.068 18.9715L53.9047 19.0874L53.8094 18.928L53.9727 18.8121L53.9047 18.7107L54.0135 18.6383L54.0816 18.7397L54.3809 18.5224C54.3809 18.5224 54.4217 18.4934 54.4217 18.4789C54.4217 18.4789 54.4217 18.45 54.3945 18.421C54.3945 18.421 54.3945 18.421 54.3945 18.4065L54.5033 18.3341L54.5577 18.4065C54.6122 18.4789 54.6258 18.5369 54.6122 18.5803C54.6122 18.6093 54.585 18.6383 54.5577 18.6673L54.2176 18.9135" fill="#F9F9F9"/>
        <path d="M49.2653 15.8714L49.3606 15.8135L49.4014 15.8859L49.551 15.799L49.6191 15.9438L49.4694 16.0307L49.5102 16.1177L49.415 16.1756L49.3742 16.0887L49.1021 16.248C49.1021 16.248 49.0749 16.277 49.0613 16.277C49.0613 16.277 49.0613 16.306 49.0749 16.335L48.966 16.3929L48.9252 16.3205C48.9252 16.3205 48.8708 16.2046 48.8844 16.1611C48.8844 16.1322 48.9116 16.1177 48.9388 16.1032L49.2653 15.9293L49.2245 15.8569L49.2653 15.8714Z" fill="#F9F9F9"/>
        <path d="M52.2993 12.8727C52.2993 12.8727 52.2449 12.8003 52.2313 12.7424C52.2177 12.6699 52.2313 12.612 52.2313 12.554C52.2585 12.4961 52.2993 12.4671 52.3537 12.4526C52.3945 12.4526 52.4217 12.4526 52.4626 12.4526C52.4762 12.4526 52.5034 12.4816 52.5442 12.5106L52.5714 12.5395C52.5714 12.5395 52.6122 12.5685 52.6258 12.5685C52.6258 12.5685 52.653 12.5685 52.6802 12.5685L52.7075 12.6989C52.7075 12.6989 52.6258 12.6989 52.5986 12.6989C52.585 12.6989 52.5578 12.6844 52.517 12.6554L52.4898 12.6265L52.4626 12.612C52.449 12.612 52.4217 12.612 52.4081 12.612C52.3809 12.612 52.3673 12.6265 52.3537 12.6409C52.3401 12.6554 52.3401 12.6844 52.3537 12.7279C52.3537 12.7568 52.3809 12.7858 52.4081 12.8003C52.4353 12.8003 52.4626 12.8003 52.4898 12.8003L52.517 12.9307C52.4353 12.9452 52.3673 12.9307 52.3129 12.8727M52.8571 12.6554L52.8299 12.5251L52.9524 12.4961L52.9796 12.6265L52.8571 12.6554Z" fill="#F9F9F9"/>
        <path d="M55.9864 15.9873L55.8503 16.0597L55.2925 15.5092L55.4149 15.4368L55.5646 15.5817L55.7687 15.4658L55.7415 15.263L55.8639 15.1905L55.9864 15.9728V15.9873ZM55.7959 15.5962L55.6462 15.6831L55.8367 15.8859L55.7823 15.5962H55.7959Z" fill="#F9F9F9"/>
        <path d="M50.3265 13.6405C50.3265 13.6405 50.3673 13.7129 50.3673 13.7419C50.3673 13.7854 50.3673 13.8143 50.3673 13.8578C50.3673 13.8723 50.3401 13.9157 50.3265 13.9447L50.0136 13.7709C50.0136 13.7709 49.9863 13.8578 50.0136 13.8868C50.0136 13.9013 50.0408 13.9302 50.068 13.9447C50.0952 13.9447 50.1224 13.9592 50.136 13.9447C50.136 13.9447 50.1632 13.9447 50.1768 13.9302L50.2857 13.9882C50.2857 13.9882 50.2449 14.0316 50.204 14.0461C50.1496 14.0751 50.0816 14.0461 50.0136 14.0171C49.9591 13.9882 49.9183 13.9447 49.8911 13.8723C49.8639 13.8143 49.8775 13.7419 49.9183 13.655C49.9591 13.5826 50.0136 13.5246 50.068 13.5101C50.1224 13.4956 50.1904 13.5101 50.2449 13.5391C50.2857 13.5536 50.3129 13.5826 50.3401 13.6115M50.1224 13.6115C50.1224 13.6115 50.0816 13.6405 50.0544 13.6695L50.2449 13.7709C50.2449 13.7709 50.2585 13.7129 50.2449 13.684C50.2449 13.655 50.2176 13.6405 50.1904 13.626C50.1632 13.6115 50.136 13.6115 50.1088 13.626" fill="#F9F9F9"/>
        <path d="M53.2653 19.4495C53.2653 19.4495 53.3197 19.4205 53.3605 19.4205C53.3877 19.4205 53.4149 19.4205 53.4558 19.435C53.4694 19.435 53.4966 19.464 53.5238 19.4785L53.3605 19.7537C53.3605 19.7537 53.4285 19.7827 53.4558 19.7537C53.4694 19.7537 53.483 19.7248 53.4966 19.7103C53.5102 19.6813 53.5102 19.6668 53.5102 19.6378C53.5102 19.6378 53.5102 19.6089 53.5102 19.5944L53.5782 19.493C53.5782 19.493 53.6054 19.5364 53.619 19.5799C53.619 19.6378 53.619 19.6958 53.5782 19.7537C53.551 19.7972 53.5102 19.8407 53.4558 19.8551C53.4013 19.8696 53.3469 19.8551 53.2789 19.8117C53.2245 19.7682 53.1836 19.7248 53.17 19.6668C53.17 19.6089 53.17 19.5509 53.2109 19.493C53.2245 19.464 53.2517 19.435 53.2789 19.4205M53.2789 19.6234C53.2789 19.6234 53.2925 19.6668 53.3197 19.6813L53.4285 19.5075C53.4285 19.5075 53.3741 19.493 53.3605 19.5075C53.3469 19.5075 53.3197 19.522 53.3061 19.5509C53.2925 19.5799 53.2789 19.5944 53.2925 19.6234" fill="#F9F9F9"/>
        <path d="M48.9252 16.5233L49.0204 16.5088L49.0476 16.7116L49.1973 16.4653L49.3197 16.4509L49.1565 16.6826L49.4014 16.9289L49.2789 16.9579L49.102 16.7696L49.0612 16.8275L49.0884 16.9868L48.9932 17.0158L48.9252 16.5233Z" fill="#F9F9F9"/>
        <path d="M49.5102 16.8854L49.6054 17.0013L49.2109 17.349L49.3741 17.5518L49.2653 17.6387L49.0204 17.3055L49.5102 16.8854Z" fill="#F9F9F9"/>
        <path d="M55.2653 15.6686L55.1565 15.741C55.1565 15.741 55.102 15.6541 55.0748 15.6396C55.0476 15.6106 55.0204 15.5962 54.9796 15.5817C54.9524 15.5817 54.9252 15.5817 54.898 15.5817C54.8844 15.5817 54.8708 15.5817 54.8571 15.5962L54.7755 15.4658L55.4422 14.9877L55.551 15.1616L55.1293 15.4658L55.2517 15.6686H55.2653Z" fill="#F9F9F9"/>
        <path d="M50.517 14.1475L50.449 14.0316C50.449 14.0316 50.5306 13.9592 50.5442 13.9447C50.5714 13.9157 50.585 13.8723 50.5986 13.8433C50.5986 13.8143 50.5986 13.7854 50.5986 13.7564C50.5986 13.7419 50.5986 13.7274 50.585 13.7129L50.7211 13.6115L51.1973 14.3793L51.034 14.4952L50.7347 14.0027L50.5306 14.133L50.517 14.1475Z" fill="#F9F9F9"/>
        <path d="M55.238 15.8424L55.3877 15.7555L55.4829 15.9438L55.6326 16.306L55.5646 16.3494L55.3469 16.0307L55.2516 15.8424H55.238ZM55.5782 16.4798L55.7142 16.3929L55.7959 16.5378L55.6598 16.6247L55.5782 16.4798Z" fill="#F9F9F9"/>
        <path d="M53.9456 13.2639L54.0408 13.148L54.1768 13.2783L54.3945 13.5391L54.3401 13.597L54.0816 13.3942L53.9456 13.2639ZM54.3537 13.655L54.449 13.5391L54.5442 13.6405L54.449 13.7564L54.3537 13.655Z" fill="#F9F9F9"/>
        <path d="M52.2585 19.7682L52.2177 19.9855L51.9728 19.9276L51.5374 19.7682L51.5646 19.6668L52.0272 19.7103L52.2721 19.7682H52.2585ZM51.483 19.5944L51.4422 19.7972L51.2517 19.7537L51.2925 19.5509L51.483 19.5944Z" fill="#F9F9F9"/>
        <path d="M50.2176 19.1598L50.272 19.0729L50.1632 18.957L50.1088 19.0439L50.0543 18.9715L50.1088 18.8846L49.9591 18.7252L50.0135 18.6383L50.1632 18.7976L50.204 18.7252L50.0543 18.5659L50.1088 18.4789L50.2584 18.6383L50.3128 18.5514L50.3673 18.6238L50.3128 18.7107L50.4217 18.8266L50.4761 18.7397L50.5305 18.8121L50.4761 18.899L50.6258 19.0584L50.5713 19.1453L50.4217 18.986L50.3809 19.0584L50.5305 19.2177L50.4761 19.3047L50.3265 19.1453L50.272 19.2322L50.2176 19.1598ZM50.3673 18.899L50.2584 18.7832L50.2176 18.8556L50.3265 18.9715L50.3673 18.899Z" fill="#F9F9F9"/>
        <path d="M49.4421 17.6242L49.5102 17.7401L49.6326 17.7546L49.551 17.856L49.5918 17.9864L49.4693 17.9429L49.3605 18.0154V17.8705L49.2653 17.7981L49.3877 17.7546L49.4421 17.6242Z" fill="#F9F9F9"/>
        <path d="M54.6122 18.7687V18.928L54.7483 18.8701L54.7755 18.9425L54.6394 19.0004L54.7211 19.1308L54.653 19.1743L54.5714 19.0439L54.4898 19.1743L54.4217 19.1308L54.5034 19.0004L54.3673 18.9425L54.3809 18.8701L54.5306 18.928V18.7687H54.6122Z" fill="#F9F9F9"/>
        <path d="M51.0068 13.0321C51.0068 13.0321 51.0068 13.0611 51.0068 13.0755C51.0068 13.0755 51.0068 13.1045 51.0068 13.119C51.0068 13.1335 51.0068 13.1625 50.9796 13.1769C50.9796 13.1769 50.9524 13.2059 50.9388 13.2059C50.9252 13.2059 50.9115 13.2059 50.8979 13.2059C50.8843 13.2059 50.8707 13.2059 50.8435 13.2059C50.8299 13.2059 50.8027 13.2059 50.7891 13.1914C50.7755 13.1914 50.7619 13.1625 50.7483 13.148C50.7483 13.1335 50.7347 13.119 50.7211 13.09C50.7211 13.0611 50.7211 13.0466 50.7211 13.0176C50.7211 13.0031 50.7211 12.9741 50.7483 12.9596C50.7483 12.9452 50.7755 12.9307 50.7891 12.9162C50.8027 12.9162 50.8163 12.9017 50.8435 12.9017C50.8571 12.9017 50.8843 12.9017 50.8979 12.9017C50.8979 12.9017 50.9252 12.9017 50.9388 12.9017C50.9524 12.9017 50.966 12.9017 50.9932 12.9162C51.0068 12.9162 51.0204 12.9307 51.034 12.9452C51.0476 12.9452 51.0612 12.9452 51.0748 12.9596C51.0748 12.9307 51.0612 12.9162 51.0476 12.8872C51.0476 12.8582 51.0476 12.8438 51.0476 12.8293C51.0476 12.8148 51.0476 12.7858 51.0748 12.7713C51.0748 12.7568 51.102 12.7424 51.1156 12.7279C51.1292 12.7279 51.1564 12.7134 51.1837 12.6989C51.2109 12.6989 51.2381 12.6989 51.2653 12.6989C51.2925 12.6989 51.3197 12.7134 51.3469 12.7279C51.3741 12.7279 51.3877 12.7568 51.4013 12.7858C51.4013 12.8003 51.4149 12.8293 51.4286 12.8582C51.4286 12.8872 51.4286 12.9017 51.4286 12.9307C51.4286 12.9596 51.4286 12.9741 51.4013 13.0031C51.4013 13.0176 51.3741 13.0466 51.3469 13.0611C51.3333 13.0611 51.3061 13.09 51.2789 13.09C51.2517 13.09 51.2245 13.09 51.1973 13.09C51.1973 13.09 51.17 13.09 51.1564 13.09C51.1564 13.09 51.1292 13.09 51.1156 13.0755C51.102 13.0755 51.0884 13.0755 51.0612 13.0611C51.0476 13.0611 51.0204 13.0466 50.9932 13.0321M50.8571 13.119C50.8571 13.119 50.8571 13.119 50.8843 13.119C50.8843 13.119 50.8843 13.119 50.8979 13.119C50.8979 13.119 50.8979 13.119 50.9115 13.1045C50.9115 13.1045 50.9115 13.1045 50.9115 13.0755C50.9115 13.0755 50.9115 13.0611 50.9115 13.0466V13.0321C50.9115 13.0321 50.9115 13.0321 50.8979 13.0321C50.8979 13.0321 50.8979 13.0321 50.8843 13.0321C50.8843 13.0321 50.8571 13.0321 50.8435 13.0321C50.8435 13.0321 50.8163 13.0466 50.8163 13.0611C50.8163 13.0755 50.8163 13.09 50.8163 13.1045C50.8163 13.1045 50.8435 13.1335 50.8571 13.1335M51.2109 13.0321C51.2109 13.0321 51.2381 13.0321 51.2517 13.0321H51.2789C51.2789 13.0321 51.2925 13.0321 51.3061 13.0031C51.3061 13.0031 51.3061 12.9886 51.3061 12.9741C51.3061 12.9741 51.3061 12.9596 51.3061 12.9452C51.3061 12.9452 51.3061 12.9162 51.2925 12.9162C51.2925 12.9162 51.2789 12.9017 51.2653 12.8872C51.2653 12.8872 51.2381 12.8872 51.2245 12.8727C51.2245 12.8727 51.1973 12.8727 51.1837 12.8727H51.1564C51.1564 12.8727 51.1428 12.8727 51.1292 12.9017C51.1292 12.9017 51.1292 12.9162 51.1156 12.9307C51.1156 12.9307 51.1156 12.9452 51.1156 12.9596V12.9886C51.1156 12.9886 51.1292 13.0031 51.1428 13.0176C51.1428 13.0176 51.17 13.0176 51.1837 13.0321" fill="#F9F9F9"/>
        <path d="M54.0136 19.6958L53.9728 19.6234L53.8503 19.6958L53.7823 19.5654L53.9047 19.493L53.7687 19.2177L53.8639 19.1598L54.3265 19.2322L54.4081 19.3916L54.068 19.5799L54.1088 19.6523L54.0272 19.6958H54.0136ZM54 19.435L54.2313 19.3047L53.9047 19.2612L53.9864 19.435H54Z" fill="#F9F9F9"/>
        <path d="M54.0816 12.9162C54.0816 12.9162 54.1496 12.9452 54.1768 12.9452C54.1904 12.9452 54.2176 12.9307 54.2312 12.9162L54.2857 12.9452C54.2857 12.9452 54.2857 13.0031 54.2857 13.0176C54.2857 13.0466 54.3129 13.0755 54.3537 13.1045L54.4625 13.1769C54.4625 13.1769 54.4897 13.1914 54.5034 13.2204C54.517 13.2494 54.5306 13.2783 54.5442 13.3073C54.5442 13.3363 54.5442 13.3653 54.5442 13.3942C54.5442 13.4087 54.5306 13.4377 54.517 13.4522L54.4489 13.4087C54.4489 13.4087 54.4489 13.3653 54.4489 13.3508C54.4489 13.3363 54.4217 13.3073 54.3945 13.2928L54.2993 13.2204C54.2993 13.2204 54.2448 13.1769 54.2312 13.1625C54.204 13.1335 54.204 13.09 54.204 13.0321C54.1632 13.0611 54.136 13.0755 54.1088 13.061C54.0816 13.061 54.0544 13.0466 54.0136 13.0176L53.9047 12.9452C53.9047 12.9452 53.8503 12.9162 53.8231 12.9162C53.8231 12.9162 53.7959 12.9162 53.7823 12.9452L53.7142 12.9017V12.8727C53.7142 12.8727 53.7959 12.8148 53.8367 12.8003C53.8775 12.8003 53.9183 12.8003 53.9591 12.8293L54.0816 12.9162Z" fill="#F9F9F9"/>
        <path d="M55.1565 17.885L54.7483 18.3196L54.6939 18.1892L54.9932 17.885L54.5851 17.914L54.5306 17.7836L55.1157 17.7691L55.1565 17.885Z" fill="#F9F9F9"/>
        <path d="M51.1973 19.435C51.1973 19.435 51.1701 19.5075 51.1429 19.522C51.1157 19.5364 51.1021 19.5654 51.0612 19.5654C51.034 19.5654 51.0068 19.5799 50.9796 19.5799C50.9116 19.5799 50.8572 19.5799 50.8164 19.5509C50.7483 19.522 50.7211 19.464 50.7075 19.3916L50.6803 19.1743L51.1701 19.1163L51.1973 19.3336C51.1973 19.3336 51.1973 19.3916 51.1973 19.4205M51.1021 19.2322L50.7891 19.2612V19.3626C50.7891 19.3626 50.83 19.4495 50.8844 19.464C50.9116 19.464 50.9388 19.464 50.9796 19.464C51.034 19.464 51.0612 19.4495 51.0885 19.4205C51.1157 19.4061 51.1293 19.3626 51.1157 19.3191V19.2177L51.1021 19.2322Z" fill="#F9F9F9"/>
        <path d="M49.3197 14.8429C49.3197 14.8429 49.3197 14.7994 49.3197 14.7849L49.2925 14.8429L49.1973 14.7849L49.4694 14.2344L49.5646 14.2924L49.4694 14.4952C49.4694 14.4952 49.5102 14.4807 49.5238 14.4807C49.551 14.4807 49.5782 14.4807 49.6054 14.4952C49.6462 14.5242 49.6735 14.5531 49.6871 14.6111C49.6871 14.669 49.6871 14.727 49.6599 14.7849C49.6326 14.8574 49.5918 14.9008 49.5374 14.9153C49.483 14.9443 49.4422 14.9298 49.4013 14.9153C49.3741 14.9008 49.3469 14.8718 49.3333 14.8429M49.4422 14.5676C49.4422 14.5676 49.4013 14.6111 49.3877 14.6401C49.3877 14.669 49.3741 14.6835 49.3741 14.7125C49.3741 14.756 49.3741 14.7849 49.415 14.7994C49.4422 14.7994 49.4694 14.7994 49.483 14.7994C49.5102 14.7994 49.5238 14.756 49.551 14.727C49.551 14.698 49.5646 14.669 49.5782 14.6545C49.5782 14.6111 49.5782 14.5821 49.5374 14.5676C49.5102 14.5531 49.4694 14.5531 49.4422 14.5676Z" fill="#F9F9F9"/>
        <path d="M55.2788 17.6242C55.2788 17.6242 55.2788 17.6242 55.2788 17.6387H55.0747V17.5953C55.0747 17.5953 55.0747 17.5808 55.0747 17.5663C55.0747 17.4794 55.0611 17.4214 55.0067 17.3925C54.9795 17.378 54.9387 17.3635 54.8707 17.3635L54.5577 17.3345V17.1172L55.2788 17.1752V17.378H55.1292C55.1836 17.4069 55.2108 17.4504 55.2244 17.4649C55.2516 17.5084 55.2652 17.5518 55.2652 17.6242" fill="#F9F9F9"/>
        <path d="M53.9864 13.7129C53.9864 13.7129 53.9592 13.7274 53.9456 13.7274C53.9456 13.7274 53.9184 13.7274 53.9048 13.7274C53.8912 13.7274 53.864 13.7274 53.8504 13.7274C53.8368 13.7274 53.8232 13.7129 53.8096 13.6984C53.8096 13.6984 53.7823 13.6695 53.7823 13.655C53.7823 13.6405 53.7823 13.626 53.7823 13.597C53.7823 13.5826 53.7823 13.5536 53.7823 13.5391C53.7823 13.5246 53.7823 13.4956 53.8096 13.4812C53.8096 13.4667 53.8368 13.4522 53.8504 13.4377C53.864 13.4377 53.8912 13.4232 53.9184 13.4232C53.9456 13.4232 53.9592 13.4232 53.9864 13.4232C54 13.4232 54.0272 13.4377 54.0409 13.4522C54.0545 13.4522 54.0681 13.4812 54.0817 13.4956C54.0817 13.5101 54.0953 13.5391 54.0953 13.5536C54.0953 13.5536 54.0953 13.5826 54.0953 13.597C54.0953 13.6115 54.0953 13.6405 54.0953 13.655C54.0953 13.6695 54.0953 13.6984 54.0953 13.7129C54.0953 13.7274 54.0953 13.7419 54.0953 13.7564C54.1089 13.7419 54.1361 13.7274 54.1633 13.7129C54.1905 13.7129 54.2041 13.7129 54.2177 13.7129C54.2313 13.7129 54.2585 13.7129 54.2721 13.7129C54.2858 13.7129 54.313 13.7274 54.3266 13.7564C54.3402 13.7709 54.3538 13.7999 54.3674 13.8143C54.3674 13.8433 54.381 13.8723 54.3946 13.9013C54.3946 13.9302 54.3946 13.9592 54.3946 13.9882C54.3946 14.0171 54.381 14.0316 54.3674 14.0606C54.3538 14.0751 54.3266 14.0896 54.313 14.1041C54.2857 14.1041 54.2721 14.1186 54.2449 14.1186C54.2177 14.1186 54.1905 14.1186 54.1633 14.1186C54.1361 14.1186 54.1225 14.1041 54.0953 14.0896C54.0817 14.0751 54.0545 14.0461 54.0545 14.0316C54.0545 14.0027 54.0409 13.9737 54.0272 13.9447C54.0272 13.9447 54.0272 13.9157 54.0272 13.9013C54.0272 13.9013 54.0272 13.8723 54.0272 13.8578C54.0272 13.8433 54.0272 13.8143 54.0272 13.7999C54.0272 13.7854 54.0272 13.7564 54.0272 13.7274M53.9048 13.6115C53.9048 13.6115 53.9048 13.626 53.9048 13.6405C53.9048 13.6405 53.9048 13.6405 53.9048 13.655C53.9048 13.655 53.9048 13.655 53.9184 13.655C53.9184 13.655 53.932 13.655 53.9456 13.655H53.9728C53.9728 13.655 53.9728 13.655 53.9864 13.6405C53.9864 13.6405 53.9864 13.6405 53.9864 13.6115C53.9864 13.6115 53.9864 13.6115 53.9864 13.597C53.9864 13.5826 53.9864 13.5681 53.9728 13.5536C53.9728 13.5536 53.9456 13.5391 53.932 13.5391C53.9184 13.5391 53.9048 13.5391 53.8912 13.5681C53.8912 13.5681 53.8776 13.597 53.8776 13.6115M54.0817 13.9592C54.0817 13.9592 54.0817 13.9882 54.0817 14.0027C54.0817 14.0027 54.0953 14.0316 54.1089 14.0316C54.1089 14.0316 54.1225 14.0316 54.1361 14.0461H54.1633C54.1633 14.0461 54.1769 14.0461 54.1905 14.0461C54.1905 14.0461 54.2041 14.0461 54.2177 14.0171C54.2177 14.0171 54.2177 13.9882 54.2313 13.9737C54.2313 13.9737 54.2313 13.9447 54.2313 13.9302C54.2313 13.9302 54.2313 13.9013 54.2313 13.8868C54.2313 13.8868 54.2313 13.8578 54.2041 13.8578C54.2041 13.8578 54.1905 13.8433 54.1769 13.8433C54.1769 13.8433 54.1497 13.8433 54.1361 13.8433H54.1089C54.1089 13.8433 54.0953 13.8433 54.0817 13.8723L54.0681 13.9013C54.0681 13.9013 54.0681 13.9302 54.0681 13.9447" fill="#F9F9F9"/>
        <path d="M52.0952 19.4205C52.0952 19.4205 52.1904 19.4205 52.2176 19.4205C52.2584 19.4061 52.272 19.3771 52.2856 19.3481C52.2856 19.3481 52.2856 19.3191 52.2856 19.3047C52.2856 19.2902 52.2856 19.2757 52.272 19.2612C52.272 19.2467 52.2448 19.2322 52.2312 19.2177C52.2176 19.2177 52.1904 19.1888 52.1496 19.1888C52.1224 19.1888 52.1088 19.1888 52.0816 19.1888L52.1224 19.0294C52.1224 19.0294 52.136 19.0294 52.1496 19.0294C52.1496 19.0294 52.1632 19.0294 52.1768 19.0294C52.1768 19.0294 52.1904 19.0294 52.204 19.0294C52.204 19.0294 52.2176 19.0294 52.2312 19.0294C52.272 19.0294 52.3129 19.0584 52.3401 19.0729C52.3673 19.1018 52.3945 19.1308 52.4081 19.1598C52.4217 19.1888 52.4353 19.2322 52.4489 19.2612C52.4489 19.3047 52.4489 19.3336 52.4489 19.3771C52.4489 19.4061 52.4353 19.435 52.4081 19.464C52.3945 19.493 52.3673 19.522 52.3401 19.5364C52.3129 19.5509 52.272 19.5654 52.2312 19.5799C52.1904 19.5799 52.136 19.5799 52.068 19.5799L51.619 19.464C51.619 19.464 51.5237 19.435 51.4829 19.4061C51.4421 19.3771 51.4149 19.3481 51.4013 19.3191C51.3741 19.2902 51.3605 19.2467 51.3605 19.2033C51.3605 19.1598 51.3605 19.1163 51.3605 19.0729C51.3605 19.0294 51.3877 18.986 51.4149 18.957C51.4421 18.928 51.4693 18.899 51.5101 18.8846C51.5373 18.8701 51.5782 18.8556 51.619 18.8556C51.6598 18.8556 51.7006 18.8556 51.7278 18.8556C51.7686 18.8556 51.8095 18.8846 51.8503 18.9135C51.8911 18.9425 51.9183 18.9715 51.9319 19.0004C51.9591 19.0294 51.9727 19.0729 51.9727 19.1018C51.9727 19.1308 51.9727 19.1888 51.9727 19.2177C51.9727 19.2467 51.9591 19.2612 51.9455 19.2902C51.9319 19.3047 51.9183 19.3336 51.8911 19.3481L52.1088 19.4061L52.0952 19.4205ZM51.687 19.0294C51.687 19.0294 51.6462 19.0294 51.619 19.0294C51.6054 19.0294 51.5782 19.0294 51.5646 19.0439C51.551 19.0439 51.5373 19.0584 51.5237 19.0729C51.5237 19.0874 51.5101 19.1018 51.4965 19.1163C51.4965 19.1308 51.4965 19.1453 51.4965 19.1743C51.4965 19.1888 51.4965 19.2033 51.5237 19.2177C51.5237 19.2322 51.551 19.2467 51.5646 19.2612C51.5782 19.2612 51.6054 19.2757 51.619 19.2902C51.6462 19.2902 51.6598 19.2902 51.687 19.2902C51.7142 19.2902 51.7278 19.2902 51.7414 19.2902C51.755 19.2902 51.7686 19.2757 51.7822 19.2612C51.7822 19.2612 51.7959 19.2322 51.8095 19.2177C51.8095 19.2033 51.8095 19.1743 51.8095 19.1598C51.8095 19.1453 51.8095 19.1308 51.7822 19.1018C51.7822 19.0874 51.755 19.0729 51.7414 19.0584C51.7278 19.0584 51.7006 19.0439 51.687 19.0294Z" fill="#F9F9F9"/>
        <path d="M49.619 17.5373C49.619 17.5373 49.619 17.5518 49.619 17.5663C49.619 17.5808 49.6462 17.5953 49.6734 17.5953C49.7006 17.5953 49.7278 17.5663 49.7414 17.5373C49.7414 17.5084 49.7414 17.4794 49.7414 17.4504C49.7414 17.4649 49.7142 17.4794 49.7006 17.4794C49.687 17.4794 49.6734 17.4794 49.6462 17.4794C49.6054 17.4794 49.5645 17.4794 49.5373 17.4359C49.5101 17.407 49.4965 17.3635 49.4829 17.32C49.4829 17.2766 49.4829 17.2331 49.5101 17.1897C49.5373 17.1462 49.5781 17.1317 49.6326 17.1317C49.7006 17.1317 49.7414 17.1462 49.7686 17.2041C49.7958 17.2476 49.8094 17.3055 49.8094 17.3635C49.8094 17.407 49.8094 17.4359 49.8094 17.4649C49.8094 17.5084 49.8094 17.5518 49.7822 17.5808C49.7822 17.6098 49.755 17.6242 49.7278 17.6387C49.7006 17.6532 49.6734 17.6677 49.6462 17.6677C49.6054 17.6677 49.5645 17.6677 49.5373 17.6387C49.5101 17.6098 49.4965 17.5808 49.4829 17.5373H49.5781H49.619ZM49.7142 17.2331C49.7142 17.2331 49.687 17.2041 49.6598 17.2041C49.6326 17.2041 49.619 17.2041 49.6054 17.2331C49.6054 17.2476 49.5918 17.2766 49.5918 17.3055C49.5918 17.3345 49.5918 17.3635 49.619 17.378C49.6326 17.3925 49.6462 17.407 49.6734 17.3925C49.687 17.3925 49.7006 17.3925 49.7142 17.378C49.7278 17.3635 49.7414 17.3345 49.7414 17.3055C49.7414 17.2766 49.7414 17.2476 49.7142 17.2331Z" fill="#F9F9F9"/>
        <path d="M49.4286 18.1168L49.5646 18.0878L49.7551 18.3051L49.8368 18.0299L49.9864 18.0009L49.8368 18.4355L49.8776 18.6673L49.7551 18.6962L49.7143 18.45L49.4286 18.1168Z" fill="#F9F9F9"/>
        <path d="M52.6666 19.5075L52.7618 19.8262L52.8163 19.493H52.9251L53.0612 19.971H52.9659L52.8707 19.6523L52.8163 19.971L52.721 19.9855L52.6258 19.6523L52.5714 19.9855L52.4625 20L52.5714 19.5075H52.6666Z" fill="#F9F9F9"/>
        <path d="M55.7142 17.1317L55.7278 17.0448H55.8095L55.8911 16.3205L55.7959 16.306L55.8095 16.2191L55.9999 16.2336L55.9047 17.1462L55.7142 17.1317Z" fill="#F9F9F9"/>
        <path d="M55.1837 14.1186L55.1292 14.0606L55.1973 13.9882L54.7211 13.4522L54.6531 13.5246L54.5986 13.4522L54.7347 13.3073L55.3333 13.9737L55.1837 14.1186Z" fill="#F9F9F9"/>
        <path d="M55.4422 17.6242C55.4422 17.6242 55.4422 17.6677 55.4422 17.6822C55.4422 17.7112 55.483 17.7257 55.5102 17.7401C55.5374 17.7401 55.551 17.7401 55.5646 17.7401C55.5782 17.7401 55.5918 17.7401 55.5918 17.7112C55.5918 17.7112 55.5918 17.6822 55.5918 17.6677C55.5918 17.6677 55.551 17.6242 55.483 17.5808C55.4286 17.5518 55.4013 17.5228 55.3877 17.4939C55.3741 17.4649 55.3741 17.4359 55.3877 17.3925C55.4013 17.349 55.4286 17.32 55.4694 17.2911C55.5102 17.2766 55.5646 17.2766 55.619 17.2911C55.6735 17.3055 55.7143 17.3345 55.7415 17.378C55.7687 17.4214 55.7823 17.4649 55.7687 17.5228L55.6462 17.4794C55.6462 17.4794 55.6462 17.4504 55.6462 17.4359C55.6462 17.407 55.619 17.3925 55.5918 17.3925C55.5646 17.3925 55.551 17.3925 55.5374 17.3925C55.5374 17.3925 55.5102 17.3925 55.5102 17.4214C55.5102 17.4214 55.5102 17.4504 55.5102 17.4649C55.5102 17.4649 55.551 17.5084 55.619 17.5518C55.6599 17.5808 55.6871 17.6098 55.7143 17.6387C55.7279 17.6677 55.7279 17.7112 55.7143 17.7401C55.7007 17.7836 55.6735 17.8271 55.619 17.8415C55.5782 17.856 55.5238 17.856 55.4422 17.8415C55.3741 17.8126 55.3197 17.7836 55.2925 17.7401C55.2653 17.6967 55.2653 17.6532 55.2925 17.5953L55.415 17.6387L55.4422 17.6242Z" fill="#F9F9F9"/>
        <path d="M50.8299 18.5514C50.8299 18.5514 50.7891 18.5803 50.7755 18.5948C50.7619 18.6238 50.7755 18.6673 50.7755 18.7252C50.7755 18.7542 50.8027 18.7832 50.8163 18.7976C50.8299 18.8121 50.8435 18.8121 50.8707 18.7976C50.8843 18.7976 50.8979 18.7832 50.9115 18.7542C50.9115 18.7397 50.9115 18.6673 50.9115 18.5514C50.9115 18.4645 50.9115 18.4065 50.9251 18.363C50.9387 18.3196 50.9795 18.2906 51.0204 18.2761C51.0748 18.2616 51.1428 18.2761 51.1972 18.2906C51.2517 18.3196 51.2925 18.392 51.3197 18.4789C51.3469 18.5659 51.3469 18.6383 51.3333 18.6962C51.3197 18.7542 51.2789 18.8121 51.1972 18.8411L51.1428 18.6673C51.1428 18.6673 51.1836 18.6383 51.1836 18.6238C51.1972 18.5948 51.1972 18.5659 51.1836 18.5079C51.1836 18.4645 51.1564 18.45 51.1428 18.4355C51.1292 18.4355 51.1156 18.421 51.102 18.4355C51.0884 18.4355 51.0748 18.45 51.0748 18.4789C51.0748 18.4934 51.0748 18.5659 51.0748 18.6817C51.0748 18.7542 51.0748 18.8121 51.0476 18.8701C51.0204 18.9135 50.9931 18.9425 50.9523 18.9715C50.8843 18.986 50.8299 18.986 50.7755 18.957C50.721 18.928 50.6802 18.8556 50.6394 18.7542C50.6122 18.6528 50.5986 18.5659 50.6394 18.4934C50.6666 18.421 50.7074 18.3775 50.7755 18.363L50.8299 18.5369V18.5514Z" fill="#F9F9F9"/>
        <path d="M51.0476 13.9013L50.9524 13.7709L51.0749 13.4667L50.7755 13.5391L50.6803 13.4087L51.1565 13.3218L51.3606 13.148L51.4422 13.2494L51.2381 13.4377L51.0476 13.9013Z" fill="#F9F9F9"/>
        <path d="M55.5374 16.7116L55.6055 16.784L55.5782 16.9289L55.7143 16.8999L55.7687 16.9579L55.5646 17.0013L55.5238 17.2476L55.4558 17.1752L55.483 17.0158L55.347 17.0593L55.2789 16.9868L55.4966 16.9434L55.5374 16.7116Z" fill="#F9F9F9"/>
        <path d="M50.3401 13.5391L50.3673 13.3218C50.3673 13.3218 50.3673 13.2639 50.3945 13.2349C50.4217 13.2059 50.4217 13.1914 50.4489 13.1625C50.4625 13.148 50.4897 13.1335 50.517 13.119C50.5442 13.119 50.5714 13.1045 50.5986 13.1045V13.2059C50.5986 13.2059 50.5306 13.2349 50.517 13.2494C50.5034 13.2783 50.4897 13.3073 50.4897 13.3363H50.585L50.5578 13.5681L50.3673 13.5391H50.3401Z" fill="#F9F9F9"/>
        <path d="M49.3742 15.6541C49.3742 15.6541 49.3197 15.6976 49.2789 15.712C49.2381 15.7265 49.1973 15.712 49.1565 15.712C49.1157 15.712 49.0748 15.6831 49.034 15.6541C48.9932 15.6251 48.966 15.6106 48.9524 15.5817L49.0068 15.4658C49.0068 15.4658 49.0612 15.5237 49.0885 15.5382C49.1157 15.5527 49.1565 15.5672 49.1837 15.5817C49.2245 15.5817 49.2517 15.5817 49.2789 15.5817C49.3061 15.5817 49.3197 15.5527 49.3197 15.5382C49.3197 15.5237 49.3197 15.5092 49.3197 15.4803C49.3197 15.4658 49.2925 15.4513 49.2517 15.4368L49.1293 15.4078L49.1701 15.2775L49.2925 15.3064C49.2925 15.3064 49.3469 15.3064 49.3606 15.3064C49.3742 15.3064 49.3878 15.2775 49.3878 15.263C49.3878 15.234 49.3878 15.2195 49.3742 15.1905C49.3606 15.1761 49.3333 15.1471 49.2925 15.1471C49.2517 15.1471 49.2245 15.1326 49.1837 15.1326C49.1565 15.1326 49.1157 15.1326 49.0748 15.1471V15.0167C49.0748 15.0167 49.1701 15.0022 49.2245 15.0022C49.2653 15.0022 49.3197 15.0022 49.3742 15.0312C49.4694 15.0602 49.5374 15.0891 49.5646 15.1471C49.5918 15.205 49.6191 15.2485 49.6327 15.2919C49.6327 15.3499 49.6327 15.4078 49.6327 15.4948C49.6327 15.5382 49.6327 15.5672 49.6327 15.5817C49.6327 15.6106 49.6327 15.6251 49.6327 15.6541H49.5102C49.5102 15.6541 49.5102 15.6106 49.5102 15.5817C49.5102 15.5527 49.5102 15.5237 49.5238 15.4803C49.5238 15.4223 49.5374 15.3789 49.5374 15.3499C49.5374 15.3209 49.5374 15.2775 49.5374 15.2485C49.5374 15.2195 49.5102 15.1905 49.483 15.1616C49.5102 15.205 49.5102 15.2485 49.4966 15.2919C49.4966 15.3209 49.483 15.3354 49.4558 15.3644C49.4422 15.3789 49.415 15.3933 49.3878 15.4078C49.4286 15.4513 49.4422 15.5092 49.415 15.5672C49.415 15.6106 49.3878 15.6396 49.3606 15.6686" fill="#F9F9F9"/>
        <path d="M52.136 13.2639C52.136 13.2639 52.1768 13.1769 52.2176 13.1335C52.2585 13.09 52.2993 13.0611 52.3401 13.0466C52.3809 13.0466 52.4353 13.0466 52.4761 13.0466C52.517 13.0611 52.5578 13.09 52.5986 13.1335C52.6394 13.1769 52.653 13.2204 52.6666 13.2639C52.6802 13.3073 52.6802 13.3653 52.6666 13.4087C52.6666 13.4667 52.6258 13.5101 52.585 13.5536L52.4489 13.4522C52.4489 13.4522 52.517 13.3653 52.517 13.3363C52.517 13.2928 52.517 13.2639 52.4897 13.2349C52.4353 13.1769 52.3809 13.1914 52.3129 13.2639C52.2857 13.2928 52.2585 13.3363 52.2585 13.3653C52.2585 13.3942 52.2585 13.4232 52.2857 13.4522L52.3265 13.4956L52.2312 13.597L52.1904 13.5536C52.1904 13.5536 52.1496 13.5246 52.1224 13.5101C52.0952 13.5101 52.068 13.5101 52.0544 13.5391C52.0408 13.5536 52.0272 13.5826 52.0136 13.6115C52.0136 13.6405 51.9863 13.6695 51.9863 13.7129L51.8639 13.626C51.8639 13.626 51.8639 13.5536 51.8911 13.5101C51.9047 13.4812 51.9319 13.4377 51.9591 13.4087C51.9863 13.3797 52.0136 13.3653 52.0544 13.3508C52.0816 13.3508 52.1224 13.3508 52.1496 13.3508C52.1496 13.3073 52.1496 13.2783 52.1496 13.2349" fill="#F9F9F9"/>
        <path d="M55.3877 14.3648C55.3877 14.3648 55.4693 14.3793 55.5102 14.4083C55.551 14.4373 55.5782 14.4662 55.5918 14.5097C55.6054 14.5531 55.619 14.5966 55.6054 14.6401C55.6054 14.6835 55.5782 14.727 55.5646 14.7704C55.5374 14.8139 55.5102 14.8574 55.4693 14.8718C55.4285 14.8863 55.3877 14.9153 55.3469 14.9153C55.3061 14.9153 55.2653 14.9153 55.2244 14.8718L55.2789 14.727C55.2789 14.727 55.3469 14.756 55.3741 14.756C55.4013 14.756 55.4285 14.727 55.4421 14.7125C55.4557 14.6835 55.4693 14.6545 55.4557 14.6256C55.4557 14.5966 55.4285 14.5676 55.4013 14.5531C55.3741 14.5387 55.3333 14.5242 55.3061 14.5242C55.2789 14.5242 55.2517 14.5531 55.238 14.5821L55.2108 14.6256L55.102 14.5531L55.1428 14.4952C55.1428 14.4952 55.1836 14.4083 55.1428 14.3793C55.1292 14.3793 55.1156 14.3648 55.0884 14.3793C55.0748 14.3793 55.0476 14.3793 55.0204 14.4083C54.9932 14.4083 54.9659 14.4373 54.9523 14.4373C54.9387 14.4373 54.9115 14.4373 54.8843 14.4373C54.8571 14.4373 54.8299 14.4373 54.8163 14.4083L54.8979 14.2779C54.8979 14.2779 54.9251 14.2779 54.9387 14.2779C54.9523 14.2779 54.9795 14.2779 55.0068 14.2489C55.034 14.2489 55.0612 14.22 55.0748 14.22C55.0884 14.22 55.1156 14.22 55.1428 14.22C55.17 14.22 55.1836 14.22 55.2108 14.2489C55.2653 14.2924 55.2789 14.3358 55.2653 14.4083C55.2925 14.3938 55.3333 14.3793 55.3741 14.3793" fill="#F9F9F9"/>
        <path d="M55.1972 18.6238C55.1972 18.6238 55.1836 18.7107 55.1564 18.7397C55.1292 18.7832 55.0884 18.8121 55.0611 18.8121C55.0203 18.8121 54.9795 18.8266 54.9387 18.8121C54.8979 18.8121 54.8571 18.7832 54.8162 18.7542C54.7754 18.7252 54.7482 18.6817 54.7346 18.6383C54.721 18.5948 54.7074 18.5514 54.7074 18.5079C54.7074 18.4645 54.721 18.421 54.7618 18.3775L54.8979 18.45C54.8979 18.45 54.8571 18.5224 54.8571 18.5514C54.8571 18.5803 54.8707 18.6093 54.8979 18.6238C54.9251 18.6383 54.9523 18.6528 54.9795 18.6528C55.0067 18.6528 55.0339 18.6383 55.0475 18.6093C55.0747 18.5803 55.0747 18.5514 55.0747 18.5224C55.0747 18.4934 55.0611 18.4645 55.0339 18.45L54.9931 18.4065L55.0747 18.3051L55.1292 18.3486C55.1292 18.3486 55.2108 18.392 55.238 18.3486C55.238 18.3341 55.2516 18.3196 55.2516 18.2906C55.2516 18.2761 55.2516 18.2472 55.2244 18.2182C55.2244 18.1892 55.2108 18.1602 55.1972 18.1458C55.1972 18.1313 55.1972 18.1023 55.1972 18.0733C55.1972 18.0443 55.2108 18.0299 55.2244 18.0009L55.3469 18.1023C55.3469 18.1023 55.3469 18.1313 55.3469 18.1458C55.3469 18.1602 55.3469 18.1892 55.3605 18.2182C55.3605 18.2472 55.3741 18.2761 55.3877 18.2906C55.3877 18.3051 55.3877 18.3341 55.3877 18.363C55.3877 18.392 55.3877 18.4065 55.3605 18.4355C55.3196 18.4934 55.2788 18.5079 55.2108 18.4789C55.2244 18.5079 55.238 18.5514 55.2244 18.5803" fill="#F9F9F9"/>
        <path d="M51.7279 13.119V13.1045C51.7279 13.1045 51.7415 13.1045 51.7551 13.1045C51.7551 13.1045 51.7823 13.1045 51.796 13.1045C51.8232 13.1045 51.8504 13.1045 51.8776 13.119C51.8912 13.119 51.9048 13.1335 51.9184 13.148C51.9184 13.148 51.9456 13.2059 51.9456 13.2204C51.9592 13.2204 51.9728 13.2204 52 13.2059C52.0272 13.2059 52.0408 13.2059 52.0545 13.1914C52.0545 13.1625 52.0272 13.119 52 13.09C51.9864 13.0611 51.9592 13.0466 51.9184 13.0466C51.8912 13.0466 51.8504 13.0176 51.796 13.0176C51.7415 13.0176 51.7007 12.9886 51.6599 12.9452C51.6327 12.9162 51.6055 12.8727 51.6055 12.8148C51.6055 12.7713 51.6055 12.7424 51.6055 12.7134C51.6055 12.6844 51.6327 12.6844 51.6463 12.6699C51.6599 12.6699 51.6735 12.6699 51.6871 12.6699C51.6871 12.6699 51.7007 12.6989 51.7007 12.7134V12.7279V12.7568C51.7007 12.7568 51.7143 12.8293 51.7279 12.8582C51.7415 12.8872 51.7687 12.9162 51.796 12.9307C51.8232 12.9452 51.864 12.9452 51.8912 12.9452C51.932 12.9452 51.9592 12.9307 51.9864 12.9162C52.0136 12.9017 52.0408 12.8727 52.0545 12.8293C52.0545 12.8003 52.0681 12.7568 52.0681 12.7279C52.0681 12.6844 52.0681 12.6554 52.0409 12.6265C52.0272 12.5975 52 12.5685 51.9728 12.554C51.9456 12.5395 51.9048 12.5251 51.8776 12.5395C51.8504 12.5395 51.8232 12.5395 51.796 12.5685C51.7687 12.583 51.7551 12.612 51.7415 12.6265C51.7279 12.5975 51.7007 12.583 51.6871 12.5685C51.6599 12.5685 51.6327 12.554 51.6055 12.5685C51.5783 12.5685 51.5511 12.583 51.5238 12.612C51.4966 12.6265 51.483 12.6699 51.4694 12.6989C51.4694 12.7424 51.4558 12.7713 51.4694 12.8293C51.4694 12.8872 51.483 12.9307 51.5238 12.9741C51.5511 13.0176 51.5919 13.0466 51.6463 13.0755C51.6327 13.0755 51.6055 13.0755 51.6055 13.09C51.6055 13.09 51.5919 13.119 51.6055 13.1335C51.6055 13.148 51.6055 13.1625 51.6055 13.1769L51.7007 13.148L51.7279 13.119ZM51.864 12.7424C51.864 12.7424 51.864 12.6844 51.8776 12.6554C51.8776 12.6409 51.9048 12.6265 51.932 12.6265C51.9592 12.6265 51.9728 12.6265 51.9864 12.6554C52 12.6699 52.0136 12.6989 52.0136 12.7279C52.0136 12.7568 52.0136 12.7858 52.0136 12.8148C52.0136 12.8293 51.9864 12.8438 51.9592 12.8438C51.932 12.8438 51.9184 12.8438 51.9048 12.8148C51.8912 12.8003 51.8776 12.7713 51.8776 12.7424" fill="#F9F9F9"/>
        <path d="M54.3129 14.162C54.3129 14.162 54.4082 14.133 54.449 14.1475C54.4898 14.1475 54.5442 14.162 54.5851 14.191C54.6259 14.2055 54.6667 14.2344 54.7075 14.2779C54.7619 14.3214 54.8027 14.3793 54.83 14.4373C54.8572 14.4952 54.8708 14.5387 54.8708 14.5821C54.8708 14.6256 54.8708 14.669 54.8572 14.7125C54.8436 14.756 54.83 14.7849 54.8164 14.7994C54.7755 14.8429 54.7347 14.8718 54.6803 14.9008C54.6259 14.9153 54.5715 14.9008 54.517 14.9008C54.517 14.9008 54.5851 15.0312 54.5715 15.0891C54.5715 15.1616 54.5442 15.2195 54.4898 15.2775C54.449 15.3354 54.4082 15.3644 54.3538 15.3789C54.2993 15.3933 54.2585 15.4078 54.2041 15.4078C54.1497 15.4078 54.1089 15.3933 54.0544 15.3644C54 15.3354 53.9592 15.3064 53.9184 15.2775C53.8776 15.234 53.8368 15.1905 53.8095 15.1471C53.7823 15.1036 53.7551 15.0457 53.7415 15.0022C53.7279 14.9588 53.7415 14.9008 53.7415 14.8429C53.7415 14.7849 53.7823 14.7415 53.8232 14.6835C53.8776 14.6256 53.932 14.5821 53.9864 14.5676C54.0544 14.5676 54.1089 14.5676 54.1769 14.5966C54.1769 14.5966 54.1225 14.4952 54.1361 14.4373C54.1361 14.3793 54.1633 14.3358 54.2041 14.2779C54.2313 14.2344 54.2721 14.2055 54.3266 14.191M53.9864 14.9153C53.9864 14.9153 53.9864 14.9732 53.9864 15.0022C53.9864 15.0312 53.9864 15.0602 54.0136 15.0747C54.0136 15.1036 54.0408 15.1181 54.0681 15.1471C54.0953 15.1616 54.1089 15.1761 54.1361 15.1905C54.1633 15.1905 54.1905 15.1905 54.2041 15.1905C54.2313 15.1905 54.2585 15.1905 54.2721 15.1616C54.2993 15.1616 54.3129 15.1326 54.3402 15.1036C54.3538 15.0746 54.3674 15.0602 54.381 15.0312C54.381 15.0022 54.381 14.9732 54.381 14.9588C54.381 14.9298 54.381 14.9008 54.3538 14.8863C54.3538 14.8574 54.3266 14.8429 54.2993 14.8284C54.2585 14.7849 54.2041 14.7704 54.1497 14.7704C54.0953 14.7704 54.0544 14.7994 54.0136 14.8429C54 14.8718 53.9864 14.9008 53.9728 14.9153M54.3266 14.5821C54.3266 14.5821 54.3538 14.669 54.3946 14.698C54.4354 14.727 54.4762 14.756 54.517 14.756C54.5578 14.756 54.5987 14.7415 54.6259 14.698C54.6259 14.698 54.6395 14.669 54.6531 14.6545C54.6531 14.6401 54.6531 14.6111 54.6667 14.5966C54.6667 14.5821 54.6667 14.5531 54.6531 14.5242C54.6531 14.4952 54.6259 14.4807 54.5987 14.4517C54.5851 14.4373 54.5578 14.4228 54.5442 14.4083C54.517 14.4083 54.5034 14.4083 54.4762 14.4083C54.449 14.4083 54.4354 14.4083 54.4082 14.4083C54.381 14.4083 54.3674 14.4373 54.3538 14.4517C54.3266 14.4952 54.3129 14.5387 54.3266 14.5821Z" fill="#F9F9F9"/>
        <path d="M50.1089 18.0009C50.1089 18.0009 50.0544 17.885 50.0136 17.856C49.9864 17.8415 49.9456 17.8271 49.9048 17.8271L49.8776 17.7256C49.8776 17.7256 49.9592 17.6677 49.9728 17.6387C50 17.5953 50 17.5373 49.9728 17.4504L49.9184 17.2331C49.9184 17.2331 49.9184 17.1752 49.9184 17.1462C49.9184 17.0883 49.932 17.0448 49.9592 17.0013C49.9864 16.9579 50.0136 16.9289 50.068 16.9144C50.0952 16.9144 50.1361 16.8854 50.1769 16.871L50.2041 17.0013C50.2041 17.0013 50.1361 17.0448 50.1225 17.0593C50.1089 17.0882 50.1089 17.1317 50.1225 17.2041L50.1633 17.3925C50.1633 17.3925 50.1769 17.5084 50.1633 17.5373C50.1633 17.6098 50.1089 17.6677 50.0408 17.7256C50.1225 17.7256 50.1769 17.7546 50.2041 17.7981C50.2313 17.8271 50.2585 17.885 50.2857 17.9574L50.3401 18.1602C50.3401 18.1602 50.381 18.2616 50.4082 18.2761C50.4218 18.2761 50.4626 18.2906 50.5034 18.2906L50.5306 18.421H50.4762C50.4082 18.45 50.3401 18.45 50.2721 18.421C50.2041 18.392 50.1633 18.3341 50.1361 18.2472L50.068 18.0009H50.1089Z" fill="#F9F9F9"/>
        <path d="M52.2721 16.813C52.2721 16.813 52.3537 16.9289 52.3945 16.9434C52.4626 16.9724 52.5578 16.9434 52.6939 16.8854C52.7755 16.842 52.8163 16.7985 52.8571 16.7551C52.8843 16.7116 52.8979 16.6681 52.8707 16.6102C52.8571 16.5667 52.8163 16.5378 52.7755 16.5378C52.7347 16.5378 52.585 16.5523 52.3265 16.6247C52.1496 16.6681 52 16.6681 51.9048 16.6392C51.8095 16.6102 51.7279 16.5378 51.6735 16.4074C51.6054 16.2625 51.6054 16.1177 51.6735 15.9583C51.7415 15.799 51.8503 15.6831 52.0544 15.5817C52.2313 15.4948 52.3945 15.4513 52.5442 15.4658C52.6939 15.4803 52.8163 15.5817 52.9252 15.77L52.5442 15.9583C52.5442 15.9583 52.4898 15.8714 52.449 15.8569C52.3809 15.8279 52.2993 15.8279 52.2041 15.8859C52.1224 15.9293 52.068 15.9728 52.0408 16.0163C52.0136 16.0597 52.0136 16.1032 52.0408 16.1322C52.068 16.1756 52.0952 16.2046 52.136 16.2046C52.1769 16.2046 52.3265 16.1756 52.585 16.1177C52.7483 16.0742 52.8979 16.0742 53.0068 16.1177C53.1156 16.1611 53.1973 16.2336 53.2517 16.3494C53.3197 16.5088 53.3197 16.6537 53.2517 16.813C53.1837 16.9579 53.0476 17.0883 52.8163 17.2041C52.585 17.32 52.3945 17.349 52.2449 17.3055C52.0952 17.2621 51.9728 17.1607 51.9048 17.0013L52.2857 16.813H52.2721Z" fill="#F9F9F9"/>
        <path d="M53.5238 18.8411L53.3741 18.6238L54.1497 18.0443L53.8912 17.6387L54.068 17.5084L54.4762 18.1313L53.5238 18.8411Z" fill="#F9F9F9"/>
        <path d="M50.5033 15.2485C50.5033 15.2485 50.5442 15.3354 50.5442 15.3933L50.7346 15.0167L50.9387 15.1471L50.3537 16.248L50.1496 16.1322L50.2176 16.0163C50.2176 16.0163 50.1088 16.0597 50.068 16.0597C50.0135 16.0597 49.9727 16.0452 49.9047 16.0163C49.8095 15.9583 49.755 15.8714 49.7414 15.7555C49.7278 15.6396 49.7414 15.5237 49.8095 15.3933C49.8911 15.2485 49.9727 15.1616 50.0816 15.1181C50.1904 15.0746 50.2857 15.0891 50.3945 15.1471C50.4353 15.1761 50.4761 15.205 50.5033 15.2485ZM50.2448 15.8714C50.2448 15.8714 50.3401 15.799 50.3809 15.7265C50.4353 15.6251 50.4489 15.5382 50.4217 15.4658C50.4081 15.4223 50.3809 15.3933 50.3401 15.3644C50.2857 15.3354 50.2312 15.3209 50.1768 15.3644C50.1224 15.3933 50.0816 15.4513 50.0408 15.5237C49.9999 15.5962 49.9863 15.6686 49.9863 15.7265C49.9863 15.7845 50.0271 15.8424 50.0816 15.8714C50.136 15.9004 50.1904 15.9149 50.2448 15.8714Z" fill="#F9F9F9"/>
        <path d="M53.8639 14.1475L53.8775 14.2634L53.9863 14.2055L54.0135 14.2634L53.9047 14.3214L53.9999 14.4083L53.9455 14.4662L53.8639 14.3648L53.8095 14.4807L53.755 14.4517L53.8095 14.3358L53.687 14.3214L53.7006 14.2634L53.8231 14.2779L53.7959 14.162L53.8639 14.1475Z" fill="#F9F9F9"/>
        <path d="M53.9183 15.8569L54 16.0887C54 16.0887 54.0136 16.1611 54.0136 16.1901C54.0136 16.2191 54.0136 16.248 54 16.2915C54 16.3205 53.9727 16.3494 53.9591 16.3784C53.9319 16.4074 53.9183 16.4219 53.8911 16.4364L53.8639 16.335C53.8639 16.335 53.9183 16.277 53.9183 16.248C53.9183 16.2191 53.9183 16.1756 53.9183 16.1466L53.8231 16.1756L53.7415 15.9438L53.9455 15.8714L53.9183 15.8569Z" fill="#F9F9F9"/>
        <path d="M53.0884 19.493H53.0204L53.0068 19.3047C52.9116 19.3047 52.8435 19.2902 52.7891 19.2612C52.7075 19.2177 52.6531 19.1163 52.6395 18.9715H52.8299C52.8299 18.9715 52.8571 19.0584 52.8708 19.0729C52.898 19.1019 52.9252 19.1163 52.9796 19.1308L52.9524 18.8121H52.898C52.8027 18.7832 52.7347 18.7542 52.6939 18.6962C52.6531 18.6528 52.6259 18.5948 52.6259 18.5224C52.6259 18.4789 52.6259 18.4355 52.6259 18.392C52.6259 18.3486 52.6531 18.3196 52.6803 18.2906C52.7075 18.2472 52.7483 18.2182 52.7891 18.2037C52.8163 18.2037 52.8435 18.1892 52.898 18.1747V18.0154H52.9524V18.1747C53.0476 18.1747 53.102 18.1747 53.1565 18.2182C53.2381 18.2616 53.2925 18.3486 53.3061 18.4645H53.1157C53.1157 18.4645 53.102 18.4065 53.0884 18.392C53.0612 18.363 53.034 18.3486 52.9796 18.3486L53.0068 18.6383C53.1156 18.6673 53.1973 18.6962 53.2381 18.7252C53.3061 18.7687 53.3469 18.8411 53.3605 18.9425C53.3605 19.0729 53.3333 19.1598 53.2517 19.2322C53.1973 19.2757 53.1429 19.3047 53.0612 19.3191V19.5075L53.0884 19.493ZM52.9252 18.3486C52.9252 18.3486 52.8571 18.363 52.8435 18.392C52.8299 18.421 52.8163 18.45 52.8163 18.4934C52.8163 18.5369 52.8435 18.5659 52.8708 18.5948C52.8844 18.5948 52.9116 18.6093 52.9524 18.6238L52.9252 18.363V18.3486ZM53.0612 19.1308C53.0612 19.1308 53.1293 19.1163 53.1429 19.1018C53.1701 19.0729 53.1837 19.0294 53.1701 18.9715C53.1701 18.928 53.1565 18.899 53.1157 18.8701C53.102 18.8701 53.0748 18.8411 53.0204 18.8266L53.0476 19.1163L53.0612 19.1308Z" fill="#F9F9F9"/>
        <path d="M50.2313 14.1765H50.4354V14.4807H50.6531V14.6835H50.4354V15.0022H50.2449V14.698H50.0408V14.4952H50.2449V14.162L50.2313 14.1765ZM49.9864 15.0312H49.7823L49.7551 14.2055H49.9592L49.9864 15.0312Z" fill="#F9F9F9"/>
        <path d="M52.6531 15.1761L52.8844 15.0022L53.2245 15.5092L53.3333 14.6545L53.6463 14.4228L53.5102 15.2919L54.4898 15.6396L54.1769 15.8714L53.4694 15.5962L53.4286 15.8135L53.7007 16.2336L53.4694 16.4074L52.6531 15.1761Z" fill="#F9F9F9"/>
        <path d="M51.7415 18.7252V18.5803C51.7415 18.5803 51.7551 18.5369 51.7687 18.5224C51.7687 18.5079 51.7823 18.4934 51.7959 18.4789C51.7959 18.4789 51.8231 18.45 51.8367 18.45C51.8503 18.45 51.8775 18.45 51.8911 18.45V18.5079C51.8911 18.5079 51.8503 18.5224 51.8367 18.5369C51.8231 18.5514 51.8231 18.5659 51.8231 18.5948H51.8775V18.7542H51.7551L51.7415 18.7252Z" fill="#F9F9F9"/>
        <path d="M53.4694 19.3191V19.1743C53.4694 19.1743 53.483 19.1308 53.4966 19.1163C53.4966 19.1018 53.5102 19.0874 53.5238 19.0729C53.5238 19.0729 53.551 19.0439 53.5646 19.0439C53.5782 19.0439 53.6054 19.0439 53.619 19.0439V19.1018C53.619 19.1018 53.5782 19.1163 53.5646 19.1308C53.5646 19.1308 53.551 19.1598 53.551 19.1888H53.6054V19.3481H53.483L53.4694 19.3191Z" fill="#F9F9F9"/>
        <path d="M52.6666 13.597V13.7129L52.7755 13.684L52.7891 13.7274L52.6802 13.7709L52.7482 13.8578L52.7074 13.9013L52.6394 13.7999L52.5714 13.9013L52.5306 13.8578L52.5986 13.7709L52.4897 13.7274L52.5033 13.684L52.6122 13.7129V13.597H52.6666Z" fill="#F9F9F9"/>
        <path d="M54.8163 16.5957L54.8571 16.6681L54.9115 16.6247L54.9387 16.6537L54.8843 16.7116L54.9523 16.7551L54.9251 16.7985L54.8571 16.7406L54.8299 16.8275L54.789 16.813L54.8163 16.7261L54.7346 16.7406V16.6971H54.8163L54.789 16.6102L54.8163 16.5957Z" fill="#F9F9F9"/>
        <path d="M52.6667 17.5518C52.6667 17.5518 52.6259 17.5518 52.6123 17.5518H52.4899C52.4899 17.5518 52.4626 17.5518 52.449 17.5518C52.4354 17.5518 52.4218 17.5518 52.4082 17.5518C52.381 17.5518 52.3674 17.5808 52.3674 17.6098C52.3674 17.6387 52.3674 17.6677 52.3674 17.6967L52.313 17.7256C52.313 17.7256 52.313 17.6242 52.313 17.5808C52.313 17.5373 52.3538 17.4939 52.3946 17.4794C52.4082 17.4794 52.4218 17.4794 52.449 17.4794C52.449 17.4794 52.4763 17.4794 52.5035 17.4794H52.6123C52.6123 17.4794 52.6395 17.4794 52.6531 17.4794H52.6803C52.7075 17.4794 52.7211 17.4504 52.7348 17.4214C52.7348 17.4069 52.7348 17.378 52.7348 17.349H52.7892C52.7892 17.349 52.7892 17.378 52.7892 17.4069C52.7892 17.4359 52.7892 17.4504 52.7892 17.4939C52.7892 17.5084 52.7756 17.5373 52.762 17.5518C52.762 17.5518 52.7348 17.5808 52.7075 17.5808C52.7075 17.5808 52.6939 17.5808 52.6803 17.5808" fill="#F9F9F9"/>
        <path d="M54.6531 15.263C54.6531 15.263 54.7619 15.1616 54.8163 15.0891C54.8707 15.0167 54.9116 14.9443 54.9388 14.8718C54.966 14.7994 54.9932 14.7125 55.0204 14.6256L55.1156 14.698C55.1156 14.7849 55.0884 14.8718 55.0612 14.9443C55.034 15.0167 54.9932 15.0891 54.9388 15.1616C54.9116 15.1905 54.8843 15.2195 54.8571 15.2485C54.8299 15.2775 54.8027 15.3064 54.7619 15.3354C54.7347 15.3644 54.6939 15.3789 54.6531 15.4078C54.6122 15.4223 54.585 15.4513 54.5442 15.4513L54.449 15.3789C54.517 15.3499 54.585 15.3064 54.6531 15.2485" fill="#F9F9F9"/>
        <path d="M51.5646 13.2059L51.7007 13.2639C51.7007 13.2639 51.7415 13.2783 51.7551 13.2928C51.7687 13.2928 51.7823 13.3218 51.7959 13.3363C51.7959 13.3508 51.8095 13.3653 51.8095 13.3942C51.8095 13.4087 51.8095 13.4377 51.8095 13.4522H51.7551C51.7551 13.4522 51.7551 13.3797 51.7415 13.3653C51.7415 13.3653 51.7143 13.3363 51.6871 13.3363L51.6599 13.3942L51.5238 13.3363L51.5646 13.2059Z" fill="#F9F9F9"/>
        <path d="M54.7074 14.0751L54.8435 14.0461C54.8435 14.0461 54.8843 14.0461 54.8979 14.0461C54.9115 14.0461 54.9387 14.0461 54.9523 14.0606C54.9659 14.0606 54.9795 14.0751 54.9931 14.0896C54.9931 14.1041 55.0203 14.1186 55.0203 14.1475H54.9659C54.9659 14.1475 54.9387 14.133 54.9251 14.1186C54.9115 14.1186 54.8843 14.1186 54.8707 14.1186V14.1765L54.7482 14.22L54.721 14.0751H54.7074Z" fill="#F9F9F9"/>
        <path d="M53.6055 13.1625L53.7415 13.1045C53.7415 13.1045 53.7823 13.1045 53.7959 13.09C53.8095 13.09 53.8368 13.09 53.8504 13.09C53.864 13.09 53.8912 13.09 53.9048 13.119C53.9184 13.119 53.932 13.148 53.9456 13.1625L53.8912 13.1914C53.8912 13.1914 53.864 13.1625 53.8368 13.1625C53.8232 13.1625 53.7959 13.1625 53.7823 13.1625L53.8095 13.2204L53.6735 13.2783L53.6191 13.148L53.6055 13.1625Z" fill="#F9F9F9"/>
        <path d="M51.4149 14.2489L51.4694 14.3938C51.4694 14.3938 51.4694 14.4373 51.4694 14.4517C51.4694 14.4662 51.4694 14.4952 51.4694 14.5097C51.4694 14.5242 51.4557 14.5531 51.4421 14.5676C51.4421 14.5821 51.4149 14.5966 51.4013 14.6111L51.3741 14.5531C51.3741 14.5531 51.4013 14.5242 51.4013 14.4952C51.4013 14.4807 51.4013 14.4517 51.4013 14.4373L51.3469 14.4662L51.2925 14.3214L51.4149 14.2779V14.2489Z" fill="#F9F9F9"/>
        <path d="M55.7142 14.8139L55.7687 14.9588C55.7687 14.9588 55.7687 15.0022 55.7687 15.0167C55.7687 15.0312 55.7687 15.0602 55.7687 15.0747C55.7687 15.0891 55.7551 15.1181 55.7415 15.1326C55.7415 15.1471 55.7142 15.1616 55.7006 15.1761L55.6734 15.1181C55.6734 15.1181 55.7006 15.0891 55.7006 15.0602C55.7006 15.0457 55.7006 15.0167 55.7006 15.0022L55.6462 15.0312L55.5918 14.8863L55.7142 14.8284V14.8139Z" fill="#F9F9F9"/>
        <path d="M55.3741 17.8415L55.483 17.9429C55.483 17.9429 55.5102 17.9719 55.5238 17.9864C55.5238 18.0009 55.5374 18.0299 55.5374 18.0443C55.5374 18.0588 55.5374 18.0878 55.5374 18.1023C55.5374 18.1168 55.5374 18.1458 55.5102 18.1602L55.4694 18.1168C55.4694 18.1168 55.4694 18.0733 55.4694 18.0588C55.4694 18.0443 55.4557 18.0299 55.4421 18.0009L55.4013 18.0443L55.2925 17.9429L55.3877 17.8415H55.3741Z" fill="#F9F9F9"/>
        <path d="M51.4557 18.1458L51.2788 18.1892C51.2788 18.1892 51.2244 18.1892 51.1972 18.1892C51.17 18.1892 51.1564 18.1892 51.1292 18.1602C51.1156 18.1602 51.0884 18.1313 51.0748 18.1168C51.0611 18.1023 51.0475 18.0733 51.0339 18.0443H51.1156C51.1156 18.0443 51.1564 18.0733 51.17 18.0733C51.1972 18.0733 51.2108 18.0733 51.2516 18.0733V17.9864L51.4149 17.9429L51.4557 18.1168V18.1458Z" fill="#F9F9F9"/>
        <path d="M50.5442 18.0733L50.4218 18.0009L50.5034 17.8705L50.6258 17.9429L50.5442 18.0733ZM50.7891 18.0443L50.9115 18.1168L50.8299 18.2472L50.7075 18.1747L50.7891 18.0443Z" fill="#F9F9F9"/>
        <path d="M52.9508 13.8491L52.7576 13.9191L52.8233 14.1248L53.0165 14.0549L52.9508 13.8491Z" fill="#F9F9F9"/>
        <path d="M55.3878 14.1041L55.415 14.22L55.3197 14.2489L55.2789 14.1475L55.3878 14.1041Z" fill="#F9F9F9"/>
        <path d="M49.0339 15.77L49.0748 15.8859L48.9523 15.9438L48.9115 15.8135L49.0339 15.77Z" fill="#F9F9F9"/>
        <path d="M51.211 13.9447L51.2518 14.0751L51.1293 14.1186L51.0885 13.9882L51.211 13.9447Z" fill="#F9F9F9"/>
        <path d="M49.7415 13.9447L49.7823 14.0751L49.6598 14.1186L49.619 13.9882L49.7415 13.9447Z" fill="#F9F9F9"/>
        <path d="M52.6122 18.7831H52.4762V18.9135H52.6122V18.7831Z" fill="#F9F9F9"/>
        <path d="M52.6939 19.2612H52.5579V19.3916H52.6939V19.2612Z" fill="#F9F9F9"/>
        <path d="M52.2449 15.0022V15.3644L50.8163 15.9873V15.6396L51.102 15.5237L51.0748 14.9443L50.7755 14.8574V14.5242L52.2449 15.0167V15.0022ZM51.3333 15.0167V15.4223L51.9184 15.205L51.3333 15.0312V15.0167Z" fill="#F9F9F9"/>
        <path d="M52.3129 18.9425L52.068 18.8266L51.9591 17.7691L51.6054 18.6238L51.3877 18.5224L51.8775 17.3055L52.1224 17.4069L52.2312 18.4934L52.585 17.6242L52.8027 17.7256L52.3129 18.9425Z" fill="#F9F9F9"/>
        <path d="M50.6938 16.0887V16.2046L50.8027 16.1756L50.8299 16.2191L50.721 16.2625L50.7891 16.3639L50.7347 16.3929L50.6666 16.2915L50.6122 16.3929L50.5578 16.3639L50.6258 16.2625L50.517 16.2191L50.5306 16.1611L50.6394 16.2046V16.0887H50.6938Z" fill="#F9F9F9"/>
        <path d="M54.0952 17.2621C54.0952 17.2621 54.1633 17.1607 54.1769 17.1027C54.1905 17.0158 54.1769 16.9289 54.0952 16.8565C54.0408 16.813 53.9864 16.7985 53.9184 16.7985C53.8503 16.7985 53.7959 16.842 53.7415 16.8999C53.6735 16.9868 53.6599 17.0738 53.7007 17.1752C53.7279 17.2186 53.7823 17.2911 53.8912 17.3925L53.7415 17.5808C53.6327 17.4794 53.5646 17.4359 53.5238 17.4214C53.4422 17.3925 53.3742 17.4214 53.3197 17.5084C53.2789 17.5663 53.2653 17.6098 53.2653 17.6677C53.2653 17.7256 53.2925 17.7691 53.3469 17.8271C53.4014 17.885 53.4694 17.8995 53.5238 17.885C53.5782 17.8705 53.6327 17.8271 53.6871 17.7546L53.9184 17.9574C53.9184 17.9574 53.8095 18.0733 53.7415 18.1168C53.6735 18.1458 53.6054 18.1747 53.5374 18.1747C53.483 18.1747 53.4286 18.1747 53.3606 18.1458C53.3061 18.1168 53.2381 18.0878 53.1701 18.0299C53.0476 17.9285 52.9796 17.7981 52.9524 17.6677C52.9252 17.5373 52.9524 17.407 53.0476 17.3055C53.1157 17.2186 53.1837 17.1752 53.2653 17.1607C53.3197 17.1607 53.3742 17.1607 53.4014 17.1607C53.3742 17.1462 53.3605 17.0883 53.3469 17.0158C53.3333 16.8999 53.3606 16.784 53.4558 16.6681C53.551 16.5523 53.6599 16.4798 53.8095 16.4653C53.9456 16.4509 54.0952 16.4943 54.2449 16.6247C54.4218 16.784 54.5034 16.9579 54.4762 17.1462C54.4626 17.2476 54.4082 17.349 54.3265 17.4649L54.0816 17.2476L54.0952 17.2621Z" fill="#F9F9F9"/>
        <path d="M53.347 14.0171C53.347 14.0171 53.3742 14.0461 53.3878 14.0606C53.4286 14.0751 53.4558 14.0751 53.4966 14.0606C53.551 14.0316 53.5782 13.9592 53.5782 13.8723C53.5782 13.8288 53.551 13.7564 53.5238 13.684C53.5238 13.7274 53.4966 13.7564 53.4694 13.7854C53.4422 13.8143 53.415 13.8433 53.3742 13.8578C53.2925 13.9013 53.2109 13.9157 53.1157 13.8868C53.034 13.8578 52.966 13.7854 52.9252 13.6985C52.8844 13.6115 52.8572 13.5101 52.8844 13.4087C52.898 13.3073 52.966 13.2204 53.0748 13.1625C53.1973 13.09 53.3061 13.1045 53.415 13.1625C53.4966 13.2204 53.5782 13.3218 53.6327 13.4522C53.6735 13.5246 53.7007 13.597 53.7143 13.6405C53.7415 13.7274 53.7551 13.8143 53.7551 13.8868C53.7551 13.9447 53.7415 14.0171 53.7007 14.0606C53.6735 14.1186 53.6327 14.162 53.5646 14.191C53.483 14.2344 53.3878 14.2489 53.3197 14.2344C53.2381 14.22 53.1837 14.162 53.1429 14.0896L53.3333 13.9882L53.347 14.0171ZM53.2925 13.3218C53.2925 13.3218 53.2109 13.3073 53.1565 13.3218C53.1021 13.3363 53.0884 13.3798 53.0884 13.4232C53.0884 13.4667 53.0884 13.5246 53.1157 13.5681C53.1429 13.626 53.1837 13.6695 53.2245 13.684C53.2653 13.6984 53.3061 13.684 53.347 13.684C53.3742 13.6695 53.4014 13.6405 53.415 13.6115C53.4422 13.5681 53.4286 13.4956 53.4014 13.4377C53.3742 13.3798 53.3333 13.3508 53.2925 13.3218Z" fill="#F9F9F9"/>
        <path d="M55.5102 16.5523C55.5102 16.5523 55.5102 16.6537 55.4694 16.7116C55.4422 16.7696 55.4014 16.813 55.3606 16.8565C55.2517 16.9434 55.1565 16.9868 55.0612 17.0013L54.9932 16.813C54.9932 16.813 55.0748 16.7985 55.1157 16.7696C55.1565 16.7551 55.1973 16.7261 55.2245 16.6971C55.2789 16.6537 55.3061 16.6102 55.3197 16.5812C55.3334 16.5523 55.3197 16.5088 55.3197 16.4943C55.3197 16.4798 55.2925 16.4653 55.2653 16.4653C55.2381 16.4653 55.2109 16.4653 55.1701 16.5088L54.9932 16.6537L54.8708 16.4943L55.0612 16.335C55.0612 16.335 55.1157 16.277 55.1157 16.2625C55.1157 16.248 55.1157 16.2046 55.1021 16.1901C55.0885 16.1756 55.0612 16.1611 55.034 16.1611C55.0068 16.1611 54.9796 16.1611 54.9524 16.1901L54.7619 16.3494L54.6395 16.1901L54.8163 16.0452C54.8163 16.0452 54.8708 15.9873 54.8844 15.9583C54.8844 15.9293 54.8844 15.9004 54.8844 15.8859C54.8708 15.8569 54.8436 15.8569 54.8027 15.8569C54.7619 15.8569 54.7211 15.8859 54.6803 15.9293C54.517 16.0597 54.5034 16.2336 54.5987 16.4653C54.6395 16.5523 54.6667 16.6247 54.6939 16.6826C54.7075 16.7406 54.7211 16.813 54.7075 16.871C54.7075 16.9289 54.6803 16.9868 54.6259 17.0448C54.6123 17.0303 54.5851 17.0013 54.5578 16.9724C54.5306 16.9434 54.5034 16.9144 54.4898 16.8999C54.5306 16.8565 54.5442 16.813 54.5306 16.7551C54.5306 16.6971 54.4898 16.6247 54.449 16.5378C54.449 16.5088 54.4218 16.4943 54.4082 16.4798C54.3946 16.4653 54.381 16.4509 54.3674 16.4509H54.3402C54.3402 16.4509 54.3265 16.4653 54.3129 16.4798L54.2041 16.335C54.2041 16.335 54.2313 16.2915 54.2449 16.277C54.2721 16.2625 54.2993 16.248 54.3266 16.248C54.3538 16.248 54.381 16.2625 54.3946 16.2915C54.3674 16.1901 54.3538 16.0887 54.3946 15.9873C54.4218 15.9004 54.4762 15.8135 54.5578 15.7555C54.6123 15.712 54.6667 15.6831 54.7211 15.6686C54.7755 15.6541 54.83 15.6686 54.8844 15.6686C54.9388 15.6831 54.9796 15.712 55.0068 15.77C55.034 15.799 55.0476 15.8424 55.0476 15.8859C55.0476 15.9293 55.0476 15.9728 55.034 16.0163C55.1157 16.0018 55.1837 16.0163 55.2381 16.1032C55.2653 16.1322 55.2789 16.1756 55.2789 16.2191C55.2789 16.2625 55.2789 16.306 55.2517 16.335C55.3334 16.3205 55.415 16.3494 55.4694 16.4364C55.4966 16.4798 55.5238 16.5233 55.5238 16.5812" fill="#F9F9F9"/>
        <path d="M49.9184 16.842C49.9184 16.842 49.7959 16.8854 49.7143 16.871C49.6463 16.871 49.5918 16.842 49.5374 16.813C49.483 16.784 49.4558 16.7406 49.4286 16.6826C49.4014 16.6247 49.4014 16.5667 49.4014 16.4943C49.4014 16.4219 49.4286 16.3639 49.4694 16.3205C49.4966 16.277 49.551 16.2336 49.6054 16.2191C49.6599 16.2046 49.7143 16.1901 49.7823 16.2046C49.864 16.2046 49.932 16.248 49.9864 16.306C50.0408 16.3639 50.068 16.4219 50.0816 16.5088H50.1225C50.1225 16.5088 50.1633 16.5088 50.1769 16.5088C50.1769 16.5088 50.2041 16.4798 50.2177 16.4653C50.2313 16.4509 50.2449 16.4364 50.2585 16.4219C50.2585 16.4219 50.2857 16.4074 50.3129 16.3929C50.3401 16.3929 50.3674 16.3929 50.4082 16.3929L50.381 16.5957C50.381 16.5957 50.3401 16.5957 50.3265 16.5957C50.3265 16.5957 50.2993 16.6247 50.2857 16.6392C50.2857 16.6537 50.2585 16.6681 50.2449 16.6826C50.2449 16.6826 50.2177 16.6971 50.1905 16.7116C50.1633 16.7116 50.1361 16.7116 50.1089 16.7116H50.0408C50.0408 16.7116 49.9728 16.8275 49.9048 16.8565M49.5782 16.6392C49.5782 16.6392 49.6463 16.6826 49.7143 16.6971C49.7823 16.6971 49.8231 16.6971 49.864 16.6681C49.8912 16.6392 49.9184 16.6102 49.9184 16.5667C49.9184 16.5233 49.9184 16.4798 49.8776 16.4509C49.8503 16.4219 49.8095 16.4074 49.7415 16.3929C49.6735 16.3929 49.6327 16.3929 49.5918 16.4074C49.5646 16.4364 49.5374 16.4653 49.5374 16.5088C49.5374 16.5523 49.5374 16.5957 49.5782 16.6247" fill="#F9F9F9"/>
        <path d="M53.0204 14.4662L53.1156 14.3358L52.9523 14.191L52.8571 14.3214L52.204 13.7274L52.0135 13.9737L52.3129 14.9588L52.4897 15.1181L52.8435 14.6835L53.0612 14.8863L53.238 14.669L53.0204 14.4662ZM52.5169 14.756L52.2993 14.1765L52.6938 14.5387L52.5169 14.7704V14.756Z" fill="#F9F9F9"/>
        <path d="M51.3605 14.0461L51.2925 13.8723L51.4149 13.8288L51.3197 13.5681L51.5374 13.4812L51.6326 13.7419L51.7687 13.684L51.8367 13.8578L51.7006 13.9157L51.8775 14.3938C51.8775 14.3938 51.9047 14.4517 51.9183 14.4517C51.9183 14.4517 51.9591 14.4517 52 14.4373C52 14.4373 52 14.4373 52.0272 14.4373C52.0544 14.4373 52.0408 14.4373 52.0544 14.4373L52.1224 14.6111L52.0136 14.6545C51.9047 14.698 51.8231 14.7125 51.7687 14.6835C51.7415 14.669 51.7006 14.6256 51.687 14.5676L51.483 14.0027L51.3605 14.0461Z" fill="#F9F9F9"/>
        <path d="M54.7347 13.7274H54.8028V13.7709H54.9116L54.9252 13.8578H54.8164V13.9447H54.7484V13.8868L54.5443 13.9157H54.5171C54.5171 13.9157 54.5171 13.9302 54.5171 13.9592H54.4354V13.9157C54.4354 13.8578 54.4354 13.8288 54.4354 13.7999C54.4354 13.7999 54.4626 13.7709 54.4898 13.7709L54.7347 13.7274Z" fill="#F9F9F9"/>
        <path d="M51.3878 16.6102C51.4558 16.5667 51.5102 16.4798 51.5374 16.3929C51.5782 16.2046 51.4558 16.0163 51.2789 15.9873C51.102 15.9438 50.9252 16.0742 50.898 16.2625C50.8708 16.3929 50.9252 16.5378 51.0204 16.6102C50.9796 16.6102 50.9388 16.6392 50.9116 16.6681C50.8435 16.7261 50.8027 16.7985 50.7891 16.8854C50.7755 16.9724 50.7891 17.0593 50.8163 17.1462C50.8571 17.2186 50.9252 17.2766 51.034 17.2911C51.1429 17.32 51.2245 17.2911 51.2789 17.2476C51.3469 17.1897 51.3878 17.1172 51.4014 17.0303C51.415 16.9434 51.4014 16.8565 51.3742 16.784C51.4422 16.8565 51.5102 17.0013 51.4422 17.3055C51.3469 17.6822 51.0884 17.7112 50.9252 17.6822C50.7755 17.6532 50.5442 17.5084 50.5986 17.1172C50.6395 16.842 50.7619 16.6826 50.8435 16.6102L50.5714 16.5523C50.5034 16.6247 50.381 16.784 50.3265 17.0593C50.2041 17.6532 50.5986 17.885 50.8708 17.9429C51.1429 18.0009 51.5782 17.9429 51.7007 17.3635C51.8095 16.842 51.4558 16.6681 51.3742 16.6392M51.1429 17.0738C51.1429 17.0738 51.0884 17.1027 51.0476 17.0883C51.0068 17.0883 50.9796 17.0593 50.966 17.0303C50.9524 17.0013 50.9524 16.9579 50.966 16.9144C50.966 16.871 50.9932 16.8275 51.0204 16.813C51.0476 16.784 51.0748 16.784 51.1157 16.7985C51.1565 16.7985 51.1837 16.8275 51.1973 16.8565C51.2109 16.8854 51.2109 16.9289 51.1973 16.9724C51.1973 17.0158 51.1701 17.0593 51.1429 17.0738ZM51.2517 16.5378C51.2517 16.5378 51.1973 16.5667 51.1565 16.5523C51.1157 16.5523 51.0884 16.5233 51.0748 16.4943C51.0612 16.4653 51.0612 16.4219 51.0748 16.3784C51.0748 16.335 51.102 16.2915 51.1293 16.277C51.1565 16.2625 51.1837 16.248 51.2245 16.2625C51.2653 16.277 51.2925 16.2915 51.3061 16.3205C51.3197 16.3494 51.3197 16.3929 51.3061 16.4364C51.3061 16.4798 51.2789 16.5233 51.2517 16.5378Z" fill="#F9F9F9"/>
        <path d="M53.0884 12.8872C53.0884 12.8872 53.0612 12.8582 53.0612 12.8438C53.0612 12.8293 53.0612 12.8148 53.0612 12.7858C53.0612 12.7858 53.0612 12.7568 53.0748 12.7279L53.1428 12.4961L53.238 12.5251L53.17 12.7568V12.7858C53.17 12.8003 53.1836 12.8148 53.2108 12.8293C53.238 12.8293 53.2516 12.8293 53.2652 12.8293C53.2652 12.8293 53.2788 12.8003 53.2788 12.7858L53.3469 12.5685L53.4421 12.5975L53.3741 12.8148V12.8582C53.3741 12.8727 53.3877 12.8872 53.4149 12.9017C53.4421 12.9017 53.4557 12.9017 53.4693 12.9017C53.4693 12.9017 53.4829 12.8872 53.4965 12.8582L53.5646 12.6409L53.6462 12.6699L53.5373 13.0321L53.4557 13.0031V12.9452C53.4557 12.9452 53.4421 12.9741 53.4285 12.9741C53.4013 12.9741 53.3877 12.9741 53.3605 12.9741C53.3333 12.9741 53.3197 12.9452 53.3061 12.9307C53.3061 12.9162 53.2924 12.9017 53.2924 12.8727C53.2788 12.8872 53.2516 12.9017 53.238 12.9017C53.2108 12.9017 53.1972 12.9017 53.17 12.9017C53.1564 12.9017 53.1428 12.9017 53.1292 12.8727" fill="#F9F9F9"/>
        <path d="M52.83 12.9162C52.83 12.9162 52.8572 12.9162 52.8708 12.9162C52.8708 12.9162 52.8844 12.9162 52.8844 12.8872C52.8844 12.8727 52.8844 12.8582 52.8708 12.8582C52.8708 12.8582 52.8436 12.8582 52.83 12.8582C52.8027 12.8582 52.7891 12.8582 52.7891 12.8727C52.7891 12.8727 52.7891 12.8872 52.7891 12.9017H52.6939C52.6939 12.9017 52.6939 12.8438 52.7211 12.8148C52.7483 12.7858 52.7891 12.7713 52.8436 12.7713C52.8844 12.7713 52.9116 12.7713 52.9524 12.8003C52.9796 12.8148 52.9932 12.8438 52.9932 12.8872V13.0611V13.1045C52.9932 13.1045 52.9932 13.119 52.9932 13.1335H52.898C52.898 13.1335 52.898 13.1335 52.898 13.119C52.898 13.119 52.898 13.119 52.898 13.09C52.898 13.09 52.8708 13.119 52.8572 13.1335C52.8436 13.1335 52.8163 13.148 52.7891 13.148C52.7619 13.148 52.7347 13.148 52.7075 13.119C52.6803 13.1045 52.6803 13.0755 52.6803 13.0321C52.6803 12.9886 52.6939 12.9452 52.7347 12.9307C52.7483 12.9307 52.7755 12.9162 52.8164 12.9017H52.8436L52.83 12.9162ZM52.8844 12.9596C52.8844 12.9596 52.8844 12.9596 52.8708 12.9596C52.8708 12.9596 52.8572 12.9596 52.8436 12.9596H52.8164C52.8164 12.9596 52.7891 12.9596 52.7755 12.9741C52.7619 12.9741 52.7483 13.0031 52.7483 13.0176C52.7483 13.0321 52.7483 13.0466 52.7483 13.0466C52.7483 13.0466 52.7619 13.0466 52.7755 13.0466C52.7891 13.0466 52.8164 13.0466 52.83 13.0321C52.8436 13.0321 52.8572 13.0031 52.8572 12.9596V12.9162L52.8844 12.9596Z" fill="#F9F9F9"/>
        <path d="M54.7075 17.4649H54.7755V17.5084H54.8844L54.898 17.5953H54.7892V17.6822H54.7211V17.6242L54.517 17.6532H54.4898C54.4898 17.6532 54.4898 17.6677 54.4898 17.6967H54.4082V17.6532C54.4082 17.5953 54.4082 17.5663 54.4082 17.5373C54.4082 17.5373 54.4354 17.5084 54.4626 17.5084L54.7075 17.4649Z" fill="#F9F9F9"/>
        <path d="M49.9235 1.115H35.2473C34.975 1.115 34.7572 1.33558 34.7572 1.61131V2.24548C33.3686 1.28044 30.8908 0.646267 28.8759 0.646267C24.7371 0.646267 21.6195 2.8245 20.2716 6.13322V1.6251C20.2716 1.34937 20.0538 1.12879 19.7815 1.12879H14.1997C13.9274 1.12879 13.7096 1.34937 13.7096 1.6251V3.07266C12.5524 1.61131 10.8778 0.646267 8.46807 0.646267C3.63501 0.646267 0 4.65808 0 9.9796C0 15.3011 3.63501 19.3129 8.46807 19.3129C10.8778 19.3129 12.5524 18.3479 13.7096 16.9003V18.3617C13.7096 18.6374 13.9274 18.858 14.1997 18.858H19.7815C20.0538 18.858 20.2716 18.6374 20.2716 18.3617V13.826C21.6195 17.1347 24.7371 19.3129 28.8759 19.3129C30.9588 19.3129 33.5183 18.6374 34.8661 17.631C35.0431 17.4931 35.152 17.3001 35.152 17.0658V11.3444C35.152 11.1239 34.907 10.9584 34.7164 11.0963C33.3141 12.0889 31.8438 13.8398 28.7669 13.633C26.8201 13.5089 24.9822 11.9786 24.9822 9.9796C24.9822 7.98059 26.8201 6.45031 28.7669 6.32623C31.8438 6.11943 33.3141 7.8703 34.7164 8.86291C34.8934 8.98699 35.152 8.83534 35.152 8.61476V7.24991H39.2363V18.3341C39.2363 18.6098 39.4541 18.8304 39.7264 18.8304H45.4172C45.6895 18.8304 45.9073 18.6098 45.9073 18.3341V7.23613H49.9099C50.1822 7.23613 50.4 7.01554 50.4 6.73982V1.61131C50.4 1.33558 50.1822 1.115 49.9099 1.115H49.9235ZM10.0065 14.1431C7.65122 14.1431 6.15365 12.2819 6.15365 9.9796C6.15365 7.67729 7.65122 5.81613 10.0065 5.81613C12.3618 5.81613 13.8593 7.59457 13.8593 9.9796C13.8593 12.3646 12.3073 14.1431 10.0065 14.1431Z" fill="#F9F9F9"/>
    </g>
</svg>
