<svg width="22" height="22" viewBox="0 0 22 22" fill="none" xmlns="http://www.w3.org/2000/svg">
    <path d="M21.5902 19.9072L15.8789 14.7914C16.8778 13.3445 17.4924 11.6134 17.4924 9.72727C17.4924 4.86983 13.5739 0.890869 8.73341 0.890869C3.8929 0.890869 0 4.86983 0 9.7531C0 14.6364 3.91851 18.5895 8.75902 18.5895C10.8591 18.5895 12.78 17.8144 14.291 16.5483L20.0536 21.7158C20.2841 21.9225 20.5658 22.0259 20.8475 22.0259C21.1804 22.0259 21.4878 21.8967 21.7183 21.6383C22.1537 21.1474 22.1024 20.3981 21.6158 19.9589L21.5902 19.9072ZM2.35623 9.7531C2.35623 6.18754 5.22468 3.29375 8.75902 3.29375C12.2934 3.29375 15.1618 6.18754 15.1618 9.7531C15.1618 13.3187 12.2934 16.2125 8.75902 16.2125C5.22468 16.2125 2.35623 13.2928 2.35623 9.7531Z" fill="#F9F9F9"/>
</svg>
